<svg width="38" height="36" viewBox="0 0 38 36" fill="none" xmlns="http://www.w3.org/2000/svg">
<path id="image 7 (Traced)" fill-rule="evenodd" clip-rule="evenodd" d="M13.8869 0.0777328C12.9389 0.278405 11.9801 1.08029 11.5766 2.00996C11.3032 2.63967 11.207 3.17919 11.207 4.0827V4.79193H6.04037H0.873703L0.577645 4.97132C0.403898 5.07662 0.223398 5.27361 0.140793 5.4482C0.00423046 5.7368 0 6.14727 0 19.1802C0 27.9835 0.026125 32.763 0.0757773 33.0452C0.328566 34.4822 1.40504 35.6427 2.738 35.9153C3.29049 36.0282 34.7095 36.0282 35.262 35.9153C35.8925 35.7864 36.5481 35.4123 37.0029 34.922C37.4577 34.4317 37.8047 33.7249 37.9242 33.0452C37.9739 32.7631 38 27.9899 38 19.2003V5.78601L37.833 5.42899C37.5186 4.75689 37.8438 4.79217 31.9697 4.79209L26.793 4.79193V4.0827C26.793 3.69272 26.7589 3.17975 26.7172 2.94291C26.4644 1.50588 25.3879 0.345376 24.055 0.0728519C23.5653 -0.0272442 14.362 -0.0228434 13.8869 0.0777328ZM23.9746 2.55261C24.4177 2.79633 24.5664 3.17735 24.5664 4.06862V4.79193H19H13.4336V4.06862C13.4336 3.19159 13.583 2.79937 14.0096 2.55653C14.2772 2.40427 14.4543 2.39851 18.9844 2.39507C23.5491 2.39163 23.69 2.39611 23.9746 2.55261ZM35.3099 7.29234C35.2911 7.34738 34.4995 9.90508 33.5507 12.9762C32.3382 16.9011 31.7712 18.6298 31.6424 18.7948C31.5416 18.9239 31.3361 19.0664 31.1857 19.1114C31.0188 19.1614 29.6744 19.1935 27.7393 19.1938L24.5664 19.1943V18.4709C24.5664 17.5797 24.4177 17.1987 23.9746 16.9549C23.6902 16.7986 23.5457 16.7939 19 16.7939C14.4543 16.7939 14.3098 16.7986 14.0254 16.9549C13.5823 17.1987 13.4336 17.5797 13.4336 18.4709V19.1943L10.2607 19.1938C8.32556 19.1935 6.98116 19.1614 6.81432 19.1114C6.66388 19.0664 6.45837 18.9239 6.35758 18.7948C6.22881 18.6298 5.66185 16.9011 4.44927 12.9762C3.50053 9.90508 2.70891 7.34738 2.69013 7.29234C2.66289 7.21248 5.95605 7.19232 19 7.19232C32.0439 7.19232 35.3371 7.21248 35.3099 7.29234ZM4.22817 19.6707C4.47086 20.1817 5.12852 20.892 5.59416 21.1459C6.39016 21.5801 6.517 21.5926 10.1123 21.5937L13.4336 21.5946V22.318C13.4336 23.2092 13.5823 23.5902 14.0254 23.834C14.3098 23.9903 14.4543 23.995 19 23.995C23.5457 23.995 23.6902 23.9903 23.9746 23.834C24.4177 23.5902 24.5664 23.2092 24.5664 22.318V21.5946L27.8877 21.5937C31.483 21.5926 31.6098 21.5801 32.4058 21.1459C32.8715 20.892 33.5291 20.1817 33.7718 19.6707C33.865 19.4747 34.3508 18.0001 34.8515 16.3938L35.7619 13.4733L35.7676 23.0581C35.7734 32.5126 35.7714 32.6471 35.624 32.9585C35.5278 33.1619 35.3702 33.3318 35.1816 33.4355C34.8908 33.5955 34.7776 33.5966 19 33.5966C3.22236 33.5966 3.10925 33.5955 2.81838 33.4355C2.62979 33.3318 2.47215 33.1619 2.37596 32.9585C2.22857 32.6471 2.22664 32.5126 2.23235 23.0581L2.23814 13.4733L3.14851 16.3938C3.64919 18.0001 4.13502 19.4747 4.22817 19.6707ZM22.3398 20.3944V21.5946H19H15.6602V20.3944V19.1943H19H22.3398V20.3944Z" fill="#40F8FF"/>
</svg>
