<svg width="38" height="34" viewBox="0 0 38 34" fill="none" xmlns="http://www.w3.org/2000/svg">
<path id="image 6 (Traced)" fill-rule="evenodd" clip-rule="evenodd" d="M9.36088 0.0486976C6.99465 0.348335 5.01509 1.32916 3.334 3.03511C1.82999 4.5613 0.924106 6.17965 0.397699 8.281C-0.516424 11.93 0.14823 15.523 2.36144 18.8963C3.78059 21.0593 5.61069 23.0446 8.97673 26.0724C11.1179 27.9984 17.6437 33.6126 17.9606 33.8011C18.259 33.9787 18.3699 34 19 34C19.6297 34 19.7412 33.9787 20.0395 33.8014C20.3572 33.6126 26.8977 27.9852 29.0233 26.0718C32.3986 23.0336 34.2213 21.0564 35.6386 18.8963C37.8518 15.523 38.5164 11.93 37.6023 8.281C37.0759 6.17965 36.17 4.5613 34.666 3.03511C33.1673 1.51424 31.5628 0.636591 29.4593 0.187136C28.4087 -0.037405 26.4627 -0.0570213 25.5376 0.147454C22.974 0.714233 21.0029 2.01094 19.2042 4.31392L19 4.57537L18.7958 4.31392C17.0285 2.05099 15.0873 0.754439 12.6148 0.185414C11.8768 0.0156043 10.1843 -0.0555239 9.36088 0.0486976ZM11.8441 2.33289C13.948 2.70283 15.7691 3.93447 17.2079 5.9605C17.4565 6.31053 17.7582 6.7349 17.8782 6.90359C18.431 7.68016 19.569 7.68016 20.1218 6.90359C20.2418 6.7349 20.5435 6.31053 20.7921 5.9605C22.7589 3.19107 25.4963 1.88643 28.4796 2.2968C31.7916 2.75239 34.3779 5.09349 35.3653 8.5298C36.1459 11.2462 35.8016 14.0983 34.3831 16.6672C33.1947 18.8194 31.2132 21.07 27.7611 24.1889C26.0893 25.6992 19.0665 31.7911 18.997 31.7912C18.9289 31.7914 11.932 25.7172 10.2389 24.1883C4.93052 19.3945 2.83521 16.4001 2.33056 12.8861C2.00461 10.6169 2.47445 8.17311 3.60522 6.25617C5.31608 3.35579 8.64537 1.77038 11.8441 2.33289Z" fill="#40F8FF"/>
</svg>
