<svg width="25" height="48" viewBox="0 0 25 48" fill="none" xmlns="http://www.w3.org/2000/svg">
<path id="image 4 (Traced)" fill-rule="evenodd" clip-rule="evenodd" d="M11.3961 0.118125C11.243 0.198188 9.85143 3.14362 5.59726 12.3922C2.02482 20.1588 0 24.6598 0 24.8346C0 25.0252 0.0806239 25.1821 0.265325 25.351L0.530564 25.5938H4.40429C6.53482 25.5938 8.27793 25.6228 8.27793 25.6584C8.27793 25.694 6.42868 30.5139 4.16846 36.3694C1.90832 42.2248 0.0587218 47.132 0.0582906 47.2742C0.0571697 47.647 0.39415 48 0.751308 48C0.969552 48 1.12433 47.9129 1.37621 47.6484C1.70517 47.3029 24.5683 17.7992 24.8579 17.3463C25.0536 17.0406 25.0463 16.5744 24.8415 16.2995L24.6767 16.0781L20.1463 16.0312L15.616 15.9844L19.8445 8.71875C22.1702 4.72266 24.1278 1.33922 24.1948 1.2C24.3775 0.81975 24.3433 0.577312 24.0644 0.274031L23.8123 0L17.705 0.006375C13.3716 0.010875 11.5392 0.0433125 11.3961 0.118125ZM22.1373 1.71263C22.1141 1.77797 20.1505 5.14678 17.7735 9.19894C14.9252 14.0544 13.4516 16.6492 13.4516 16.8092C13.4516 16.9428 13.5453 17.1704 13.6597 17.3151L13.8677 17.5781L18.2781 17.625L22.6885 17.6719L13.0473 30.1051C7.74461 36.9434 3.39792 42.5315 3.38809 42.5231C3.37826 42.5147 4.88458 38.5706 6.73548 33.7584C8.58646 28.9462 10.1042 24.8804 10.1083 24.7233C10.1136 24.5224 10.0463 24.3726 9.88187 24.2187L9.64793 24H5.81559C3.70782 24 1.98325 23.9788 1.98325 23.9529C1.98325 23.9271 4.29202 18.8857 7.11393 12.7498L12.2446 1.59375H17.2119C21.1873 1.59375 22.1708 1.61747 22.1373 1.71263Z" fill="#40F8FF"/>
</svg>
