<svg width="1465" height="36" viewBox="0 0 1465 36" fill="none" xmlns="http://www.w3.org/2000/svg">
<g filter="url(#filter0_d_504_781)">
<path d="M750 14C750 20.0751 745.075 25 739 25C732.925 25 728 20.0751 728 14C728 7.92487 732.925 3 739 3C745.075 3 750 7.92487 750 14Z" fill="#07122A"/>
<path d="M725.667 14C725.667 21.3638 731.636 27.3333 739 27.3333C746.364 27.3333 752.333 21.3638 752.333 14C752.333 6.6362 746.364 0.666667 739 0.666667C731.636 0.666667 725.667 6.6362 725.667 14ZM739 16.5H1461V11.5H739V16.5Z" fill="url(#paint0_linear_504_781)"/>
<path d="M725.667 14C725.667 21.3638 731.636 27.3333 739 27.3333C746.364 27.3333 752.333 21.3638 752.333 14C752.333 6.6362 746.364 0.666667 739 0.666667C731.636 0.666666 725.667 6.6362 725.667 14ZM4 16.5L739 16.5L739 11.5L4 11.5L4 16.5Z" fill="url(#paint1_linear_504_781)"/>
<path d="M750 14C750 20.0751 745.075 25 739 25C732.925 25 728 20.0751 728 14C728 7.92487 732.925 3 739 3C745.075 3 750 7.92487 750 14Z" fill="#07122A"/>
</g>
<defs>
<filter id="filter0_d_504_781" x="0" y="0.666748" width="1465" height="34.6665" filterUnits="userSpaceOnUse" color-interpolation-filters="sRGB">
<feFlood flood-opacity="0" result="BackgroundImageFix"/>
<feColorMatrix in="SourceAlpha" type="matrix" values="0 0 0 0 0 0 0 0 0 0 0 0 0 0 0 0 0 0 127 0" result="hardAlpha"/>
<feOffset dy="4"/>
<feGaussianBlur stdDeviation="2"/>
<feComposite in2="hardAlpha" operator="out"/>
<feColorMatrix type="matrix" values="0 0 0 0 0 0 0 0 0 0 0 0 0 0 0 0 0 0 0.25 0"/>
<feBlend mode="normal" in2="BackgroundImageFix" result="effect1_dropShadow_504_781"/>
<feBlend mode="normal" in="SourceGraphic" in2="effect1_dropShadow_504_781" result="shape"/>
</filter>
<linearGradient id="paint0_linear_504_781" x1="739" y1="41.9916" x2="1540.99" y2="44.0312" gradientUnits="userSpaceOnUse">
<stop stop-color="white"/>
<stop stop-color="white"/>
<stop offset="0.0001" stop-color="white"/>
<stop offset="0.700329" stop-color="white" stop-opacity="0"/>
</linearGradient>
<linearGradient id="paint1_linear_504_781" x1="739" y1="14" x2="25.5" y2="14" gradientUnits="userSpaceOnUse">
<stop stop-color="white"/>
<stop offset="0.0001" stop-color="white"/>
<stop offset="0.779984" stop-color="white" stop-opacity="0"/>
</linearGradient>
</defs>
</svg>
