<svg width="21" height="20" viewBox="0 0 21 20" fill="none" xmlns="http://www.w3.org/2000/svg">
<g id="bi:linkedin" clip-path="url(#clip0_60_189)">
<path id="Vector" d="M0.406494 1.4325C0.406494 0.64125 1.06399 0 1.87524 0H18.9377C19.749 0 20.4065 0.64125 20.4065 1.4325V18.5675C20.4065 19.3588 19.749 20 18.9377 20H1.87524C1.06399 20 0.406494 19.3588 0.406494 18.5675V1.4325ZM6.58524 16.7425V7.71125H3.58399V16.7425H6.58524ZM5.08524 6.4775C6.13149 6.4775 6.78274 5.785 6.78274 4.9175C6.76399 4.03125 6.13274 3.3575 5.10524 3.3575C4.07774 3.3575 3.40649 4.0325 3.40649 4.9175C3.40649 5.785 4.05774 6.4775 5.06524 6.4775H5.08524ZM11.2202 16.7425V11.6988C11.2202 11.4288 11.2402 11.1587 11.3202 10.9662C11.5365 10.4275 12.0302 9.86875 12.8602 9.86875C13.9465 9.86875 14.3802 10.6962 14.3802 11.9113V16.7425H17.3815V11.5625C17.3815 8.7875 15.9015 7.4975 13.9265 7.4975C12.334 7.4975 11.6202 8.3725 11.2202 8.98875V9.02H11.2002C11.2069 9.00957 11.2135 8.99915 11.2202 8.98875V7.71125H8.22024C8.25774 8.55875 8.22024 16.7425 8.22024 16.7425H11.2202Z" fill="#F8F8F8"/>
</g>
<defs>
<clipPath id="clip0_60_189">
<rect width="20" height="20" fill="white" transform="translate(0.406494)"/>
</clipPath>
</defs>
</svg>
