<svg width="21" height="20" viewBox="0 0 21 20" fill="none" xmlns="http://www.w3.org/2000/svg">
<g id="mingcute:twitter-fill" clip-path="url(#clip0_60_185)">
<g id="Group">
<path id="Vector" d="M4.82715 4.15334C4.97803 4.1358 5.13083 4.15984 5.26903 4.22285C5.40724 4.28585 5.5256 4.38544 5.61132 4.51084C6.84132 6.31 8.31798 7.05833 9.95715 7.22833C10.0371 6.5275 10.2263 5.835 10.5821 5.225C11.1038 4.33 11.9521 3.67167 13.1638 3.42833C14.8388 3.09167 16.1138 3.69833 16.853 4.44083L18.3463 4.16167C18.5026 4.13239 18.664 4.14842 18.8114 4.20787C18.9589 4.26733 19.0862 4.36772 19.1785 4.49721C19.2707 4.62669 19.324 4.77987 19.3321 4.93865C19.3401 5.09743 19.3025 5.2552 19.2238 5.39334L17.7905 7.91167C17.9213 11.5458 16.9113 14.0825 14.758 15.83C13.6163 16.7567 11.9813 17.2825 10.1871 17.445C8.37882 17.6083 6.33465 17.4108 4.30298 16.8175C4.12939 16.7669 3.97698 16.6611 3.86875 16.5163C3.76052 16.3714 3.70235 16.1953 3.70301 16.0145C3.70367 15.8336 3.76312 15.6579 3.8724 15.5139C3.98169 15.3698 4.13486 15.2652 4.30882 15.2158C5.33048 14.925 6.10882 14.6742 6.81132 14.235C5.81215 13.705 5.07632 13.0117 4.55548 12.2217C3.83215 11.1233 3.56382 9.89833 3.51048 8.79417C3.45715 7.69 3.61632 6.66667 3.78465 5.92917C3.88048 5.50833 3.99215 5.08667 4.14632 4.68333C4.2007 4.54116 4.29298 4.4166 4.41315 4.32316C4.53332 4.22973 4.67596 4.17099 4.82715 4.15334Z" fill="#F8F8F8"/>
</g>
</g>
<defs>
<clipPath id="clip0_60_185">
<rect width="20" height="20" fill="white" transform="translate(0.998779)"/>
</clipPath>
</defs>
</svg>
