<svg width="20" height="19" viewBox="0 0 20 19" fill="none" xmlns="http://www.w3.org/2000/svg">
<path id="Vector" d="M18.3957 0H2.0144C1.74504 0 1.48672 0.107003 1.29625 0.29747C1.10578 0.487936 0.998779 0.746264 0.998779 1.01562V17.3984C0.998779 17.6678 1.10578 17.9261 1.29625 18.1166C1.48672 18.3071 1.74504 18.4141 2.0144 18.4141H10.83V11.2844H8.43315V8.50469H10.83V6.45469C10.83 4.07656 12.2832 2.78125 14.405 2.78125C15.1211 2.7787 15.8367 2.81521 16.5488 2.89062V5.37656H15.0816C13.9269 5.37656 13.7035 5.925 13.7035 6.72969V8.50469H16.455L16.0972 11.2844H13.7035V18.4156H18.391C18.6602 18.4152 18.9183 18.3081 19.1087 18.1177C19.299 17.9273 19.4062 17.6692 19.4066 17.4V1.01719C19.407 0.748367 19.3008 0.490345 19.1113 0.299675C18.9218 0.109005 18.6645 0.00124039 18.3957 0Z" fill="#F8F8F8"/>
</svg>
