<svg width="103" height="100" viewBox="0 0 103 100" fill="none" xmlns="http://www.w3.org/2000/svg">
<g id="GitHub (logo)">
<path id="path18" fill-rule="evenodd" clip-rule="evenodd" d="M51.5004 0C23.0613 0 0 22.952 0 51.2659C0 73.9165 14.7564 93.1331 35.2191 99.9119C37.793 100.386 38.7379 98.7998 38.7379 97.4457C38.7379 96.2232 38.6901 92.1848 38.668 87.9011C24.3405 91.0023 21.3172 81.8524 21.3172 81.8524C18.9745 75.9268 15.599 74.3511 15.599 74.3511C10.9264 71.1693 15.9513 71.2346 15.9513 71.2346C21.1228 71.5954 23.8459 76.5185 23.8459 76.5185C28.4392 84.355 35.8937 82.0892 38.8326 80.7793C39.2948 77.4659 40.6295 75.2034 42.1023 73.9241C30.6633 72.6278 18.6385 68.2319 18.6385 48.5883C18.6385 42.9912 20.6503 38.418 23.9448 34.8278C23.4101 33.5357 21.6473 28.3224 24.4437 21.2609C24.4437 21.2609 28.7684 19.883 38.61 26.5158C42.718 25.3799 47.1237 24.8103 51.5004 24.7908C55.8771 24.8103 60.2862 25.3799 64.402 26.5158C74.2317 19.883 78.5504 21.2609 78.5504 21.2609C81.3536 28.3224 79.5899 33.5357 79.0552 34.8278C82.3574 38.418 84.3555 42.9912 84.3555 48.5883C84.3555 68.2786 72.3077 72.6142 60.8397 73.8833C62.687 75.4743 64.3329 78.5941 64.3329 83.3771C64.3329 90.2365 64.2732 95.7572 64.2732 97.4457C64.2732 98.81 65.2002 100.409 67.8107 99.9051C88.2623 93.1187 103 73.9088 103 51.2659C103 22.952 79.9422 0 51.5004 0Z" fill="white"/>
<path id="path20" d="M19.5058 73.6065C19.3924 73.862 18.9899 73.9376 18.6232 73.7627C18.2496 73.5955 18.0398 73.2482 18.1609 72.9927C18.2718 72.7312 18.6752 72.6582 19.0479 72.8323C19.4223 73.0004 19.6355 73.351 19.5058 73.6065Z" fill="#1B1817"/>
<path id="path22" d="M21.5918 75.9224C21.3462 76.1491 20.8661 76.0438 20.5403 75.6856C20.2034 75.3282 20.1403 74.8502 20.3893 74.6201C20.6426 74.3943 21.1083 74.5004 21.446 74.857C21.7828 75.2187 21.8485 75.6932 21.5918 75.9224Z" fill="#1B1817"/>
<path id="path24" d="M23.6224 78.8751C23.3068 79.0933 22.7909 78.8887 22.4719 78.4328C22.1563 77.9769 22.1564 77.4302 22.4787 77.2112C22.7985 76.9922 23.3068 77.19 23.63 77.6416C23.9447 78.1051 23.9447 78.6518 23.6224 78.8751Z" fill="#1B1817"/>
<path id="path26" d="M26.4043 81.7276C26.122 82.0374 25.5208 81.9542 25.0807 81.5315C24.6304 81.118 24.5051 80.5314 24.7882 80.2215C25.0739 79.9108 25.6785 79.9983 26.122 80.4176C26.5689 80.8302 26.7053 81.4211 26.4043 81.7276Z" fill="#1B1817"/>
<path id="path28" d="M30.2419 83.3838C30.1174 83.7853 29.5383 83.9679 28.955 83.7972C28.3725 83.6215 27.9913 83.1512 28.109 82.7454C28.2301 82.3413 28.8117 82.1511 29.3993 82.3336C29.9809 82.5085 30.363 82.9754 30.2419 83.3838Z" fill="#1B1817"/>
<path id="path30" d="M34.4567 83.6911C34.4712 84.1139 33.9766 84.4645 33.3643 84.4721C32.7485 84.4857 32.2505 84.1436 32.2437 83.7276C32.2437 83.3006 32.7272 82.9534 33.3429 82.9432C33.9553 82.9313 34.4567 83.2709 34.4567 83.6911Z" fill="#1B1817"/>
<path id="path32" d="M38.3787 83.0264C38.4521 83.439 38.0265 83.8626 37.4185 83.9755C36.8206 84.0842 36.2672 83.8295 36.1913 83.4203C36.1171 82.9975 36.5503 82.5739 37.1473 82.4644C37.7562 82.3591 38.3011 82.607 38.3787 83.0264Z" fill="#1B1817"/>
</g>
</svg>
